<svg xmlns="http://www.w3.org/2000/svg" xmlns:xlink="http://www.w3.org/1999/xlink" width="1000" zoomAndPan="magnify" viewBox="0 0 750 749.999995" height="1000" preserveAspectRatio="xMidYMid meet" version="1.0"><defs><g/><clipPath id="ef33d2c256"><path d="M 223 86 L 587 86 L 587 301 L 223 301 Z M 223 86 " clip-rule="nonzero"/></clipPath><clipPath id="81e55bd929"><path d="M 225.949219 75 L 590.617188 93.765625 L 579.671875 306.488281 L 215 287.722656 Z M 225.949219 75 " clip-rule="nonzero"/></clipPath><clipPath id="f3bb0fef50"><path d="M 225.949219 75 L 590.617188 93.765625 L 579.671875 306.488281 L 215 287.722656 Z M 225.949219 75 " clip-rule="nonzero"/></clipPath></defs><g fill="#edca12" fill-opacity="1"><g transform="translate(200.81532, 658.963581)"><g><path d="M 257.125 0 L 181.03125 -124.484375 L 100.515625 -124.484375 L 100.515625 0 L 31.875 0 L 31.875 -327.859375 L 195.6875 -327.859375 C 234.78125 -327.859375 264.953125 -319.441406 286.203125 -302.609375 C 307.453125 -285.773438 318.078125 -261.613281 318.078125 -230.125 C 318.078125 -207.164062 311.5625 -187.347656 298.53125 -170.671875 C 285.507812 -153.992188 267.90625 -143.019531 245.71875 -137.75 L 334.375 0 Z M 248.984375 -227.34375 C 248.984375 -258.832031 228.816406 -274.578125 188.484375 -274.578125 L 100.515625 -274.578125 L 100.515625 -177.78125 L 190.34375 -177.78125 C 209.570312 -177.78125 224.148438 -182.117188 234.078125 -190.796875 C 244.015625 -199.484375 248.984375 -211.664062 248.984375 -227.34375 Z M 248.984375 -227.34375 "/></g></g></g><g clip-path="url(#ef33d2c256)"><g clip-path="url(#81e55bd929)"><g clip-path="url(#f3bb0fef50)"><path fill="#edca12" d="M 581.160156 121.011719 C 574.476562 115.457031 561.429688 117.96875 560.277344 127.683594 C 560.257812 128.042969 560.316406 128.335938 560.445312 128.632812 C 559.730469 132.652344 560.597656 136.964844 563.039062 140.277344 C 554.101562 141.917969 545.8125 147.863281 537.847656 151.722656 C 528.246094 156.367188 519.933594 162.746094 511.476562 169.1875 C 503.839844 175.09375 496.003906 180.699219 488.917969 187.285156 C 486.25 189.753906 483.199219 192.636719 480.566406 195.832031 C 480.539062 194.960938 480.4375 194.089844 480.40625 193.289062 C 480.09375 186.6875 479.78125 180.082031 479.613281 173.484375 C 479.34375 161.742188 479.542969 149.445312 477.820312 137.773438 C 481.113281 137.21875 484.171875 135.640625 486.113281 133.132812 C 489.695312 128.46875 489.410156 121.285156 486.464844 116.429688 C 483.324219 111.199219 476.972656 109.136719 471.832031 111.695312 C 468.964844 112.414062 466.335938 114.160156 464.441406 117.105469 C 460.972656 122.429688 461.59375 130.132812 466.222656 134.644531 C 467.535156 135.941406 469.160156 136.824219 470.871094 137.417969 C 462.058594 146.519531 455.070312 156.800781 448.480469 167.757812 C 444.515625 174.285156 440.832031 180.972656 437.222656 187.664062 C 436.34375 189.214844 435.316406 190.898438 434.285156 192.582031 C 430.875 178.433594 426.875 164.546875 423.097656 150.453125 C 421.089844 142.964844 419.441406 135.496094 417.945312 127.886719 C 416.972656 122.84375 415.578125 117.488281 412.226562 113.550781 C 412.230469 113.476562 412.308594 113.335938 412.3125 113.265625 C 412.316406 113.191406 412.320312 113.121094 412.320312 113.121094 C 415.710938 113.511719 419.308594 112.683594 422.121094 110.222656 C 429.640625 103.730469 427.167969 91.152344 418.136719 87.5 C 410.742188 84.515625 400.492188 87.679688 398.960938 96.289062 C 397.917969 102.460938 402.488281 112.398438 408.917969 112.945312 C 403.195312 118.371094 399.382812 126.210938 395.90625 133.054688 C 391.957031 140.742188 387.800781 148.128906 383.640625 155.660156 C 379.714844 162.84375 376.710938 170.433594 372.222656 177.296875 C 370.722656 179.609375 369 182.054688 367.636719 184.589844 C 366.070312 181.179688 364.953125 177.503906 363.605469 174.105469 C 361.234375 167.972656 358.265625 162.171875 355.457031 156.164062 C 350.617188 145.78125 346.050781 133.019531 337.859375 124.347656 C 340.398438 122.957031 342.617188 120.753906 344.070312 117.933594 C 347.621094 110.949219 345.890625 102.246094 338.910156 98.265625 C 335.8125 96.441406 332.058594 96.03125 328.539062 96.71875 C 327.609375 96.453125 326.671875 96.332031 325.648438 96.496094 C 321.847656 97.027344 319.160156 99.929688 317.25 103.160156 C 312.945312 110.683594 314.566406 120.035156 322.546875 124.355469 C 324.734375 125.554688 327.167969 126.183594 329.484375 126.304688 C 323.683594 137.515625 318.726562 149.207031 315.558594 161.421875 C 313.742188 168.496094 311.5 175.402344 309.542969 182.398438 C 308.734375 185.46875 307.535156 189.027344 306.769531 192.609375 C 299.667969 183.917969 294.007812 174.070312 286.148438 165.992188 C 276.292969 155.855469 264.25 147.273438 250.25 144.308594 C 250.109375 144.226562 249.898438 144.074219 249.757812 143.992188 C 251.082031 142.25 252.128906 140.207031 252.746094 138.136719 C 255.316406 129.074219 248.832031 118.316406 238.878906 118.457031 C 237.574219 118.460938 236.328125 118.6875 235.070312 119.128906 C 230.742188 120.066406 227.410156 122.71875 225.757812 126.613281 C 223.460938 130.40625 222.867188 134.863281 225.441406 138.46875 C 226.800781 143.027344 229.714844 147.085938 234.117188 148.980469 C 238.660156 150.949219 243.140625 149.878906 246.617188 147.234375 C 248.910156 150.609375 252.308594 153.679688 254.535156 156.980469 C 257.558594 161.625 260.132812 166.605469 262.339844 171.714844 C 267.007812 182.527344 270.265625 193.988281 273.601562 205.308594 C 277.3125 217.804688 281.320312 230.175781 283.855469 242.972656 C 285.296875 250.214844 286.523438 257.445312 287.597656 264.742188 C 288.570312 271.234375 288.207031 279.6875 292.507812 284.976562 C 293.804688 286.5625 295.773438 286.375 297.132812 285.359375 C 304.542969 286.609375 312.351562 284.402344 319.613281 282.894531 C 327.390625 281.269531 335.238281 279.644531 343.144531 278.3125 C 359.617188 275.542969 376.222656 274.441406 392.882812 275.082031 C 409.105469 275.699219 425.316406 277.980469 440.8125 282.90625 C 448.242188 285.242188 455.117188 288.417969 462.128906 291.820312 C 467.015625 294.171875 472.78125 297.726562 478.460938 298.816406 C 480.648438 301.390625 485.921875 300.503906 486.65625 296.125 C 489.300781 279.972656 492.398438 264.855469 498.199219 249.515625 C 504.074219 234.035156 511.515625 219.144531 519.804688 204.800781 C 527.292969 191.792969 535.566406 179.117188 544.460938 167.050781 C 550.3125 159.167969 557.429688 147.734375 566.847656 143.875 L 566.917969 143.878906 C 572.574219 146.847656 580.734375 144.808594 584.414062 139.566406 C 588.574219 133.484375 586.449219 125.410156 581.160156 121.011719 Z M 470.109375 122.609375 C 470.355469 120.667969 471.015625 119.109375 471.945312 117.925781 C 473.972656 116.65625 476.15625 115.101562 478.574219 116.09375 C 480.5625 116.921875 481.90625 119.015625 482.605469 120.9375 C 484.316406 125.800781 481.84375 130.089844 476.464844 130.25 C 471.671875 130.363281 469.507812 127.210938 470.109375 122.609375 Z M 418.480469 96.351562 C 421.871094 102.390625 414.761719 109.410156 408.867188 105.484375 C 407.320312 104.464844 406.304688 103.109375 405.722656 101.703125 C 405.480469 100.75 405.308594 99.871094 405.28125 99.003906 C 405.382812 97.054688 406.273438 95.214844 407.863281 93.921875 C 411.234375 91.925781 416.617188 93.070312 418.480469 96.351562 Z M 322.027344 111.875 C 321.972656 111.511719 321.914062 111.21875 321.933594 110.859375 C 323.445312 108.328125 324.53125 105.5625 327.019531 103.734375 C 329.957031 101.640625 334.097656 101.566406 337.117188 103.53125 C 342.660156 107.21875 340.195312 115.632812 334.644531 117.738281 C 329.683594 119.65625 322.964844 117.644531 322.027344 111.875 Z M 238.84375 141.765625 C 234.910156 142 232.421875 136.800781 231.785156 133.65625 C 231.550781 132.558594 231.539062 131.398438 231.589844 130.386719 C 232.007812 129.324219 232.785156 128.277344 233.925781 127.324219 C 236.882812 124.796875 241.117188 124.363281 244.164062 127.199219 C 246.796875 129.652344 247.695312 134.765625 245.289062 137.753906 C 243.980469 139.207031 241.023438 141.660156 238.84375 141.765625 Z M 512.769531 199.011719 C 495.414062 226.0625 481.136719 256.671875 477.882812 288.867188 C 476.671875 288.441406 475.53125 288.023438 474.394531 287.53125 C 470.492188 285.808594 466.746094 283.878906 462.921875 282.015625 C 456.339844 278.78125 449.738281 275.90625 442.742188 273.664062 C 426.746094 268.570312 410.035156 266.117188 393.304688 265.476562 C 376.714844 264.839844 360.394531 266.097656 344.050781 269.167969 C 335.917969 270.703125 327.765625 272.527344 319.6875 274.429688 C 313.003906 275.964844 305.613281 277.105469 299.285156 280.183594 C 300.097656 274.289062 297.933594 267.011719 297.117188 261.683594 C 295.910156 254.09375 294.632812 246.496094 292.839844 239.019531 C 289.675781 225.753906 284.96875 212.914062 280.625 199.949219 C 276.917969 188.828125 272.992188 177.695312 267.503906 167.277344 C 265.1875 162.886719 262.503906 158.621094 259.589844 154.632812 C 267.34375 160.460938 274.632812 166.917969 280.9375 174.195312 C 289.84375 184.425781 295.503906 197.167969 305.472656 206.511719 C 307.824219 208.734375 310.902344 208.167969 312.804688 206.457031 C 313.402344 206.125 313.9375 205.644531 314.339844 204.871094 C 317.332031 198.871094 317.433594 191.273438 319.078125 184.699219 C 320.820312 177.621094 322.851562 170.632812 324.449219 163.546875 C 327.265625 151.09375 331.167969 138.769531 333.121094 126.203125 C 333.265625 126.210938 333.339844 126.140625 333.484375 126.148438 C 336.179688 131.644531 339.171875 136.9375 341.5625 142.636719 C 344.40625 149.441406 346.953125 156.378906 349.648438 163.25 C 354.144531 174.558594 356.707031 188.226562 364.335938 197.960938 C 364.402344 198.109375 364.542969 198.1875 364.605469 198.335938 C 366.046875 201.378906 371.855469 201.316406 372.628906 197.589844 C 374.167969 190.210938 378.351562 185.070312 382.09375 178.675781 C 386.074219 171.855469 389.214844 164.417969 392.839844 157.4375 C 396.382812 150.597656 399.429688 143.585938 402.480469 136.503906 C 405.199219 130.199219 408.351562 123.917969 410.785156 117.53125 C 412.0625 122.375 412.386719 127.3125 412.925781 132.335938 C 413.765625 140.054688 415.332031 147.664062 417.042969 155.28125 C 420.695312 171.757812 425.292969 188.210938 427.777344 204.84375 C 428 206.160156 428.605469 207.058594 429.449219 207.609375 C 430.226562 209.386719 432.734375 210.023438 434.371094 209.238281 C 440.023438 206.558594 442.804688 197.652344 445.757812 192.449219 C 449.28125 186.042969 452.804688 179.636719 456.398438 173.230469 C 461.917969 163.308594 467.507812 153.386719 472.957031 143.460938 C 471.71875 153.386719 472.5625 163.785156 472.417969 173.621094 C 472.3125 179.914062 472.644531 186.15625 472.90625 192.398438 C 473.117188 198.128906 471.742188 205.152344 473.863281 210.472656 C 474.054688 210.917969 474.332031 211.222656 474.683594 211.457031 C 475.367188 213.664062 478.347656 214.976562 480.257812 213.117188 C 486.144531 207.339844 490.074219 200.015625 496.246094 194.324219 C 502.953125 188.152344 510.339844 182.8125 517.59375 177.25 C 525.375 171.28125 532.730469 165.140625 540.988281 159.777344 C 541.667969 159.304688 542.417969 158.835938 543.09375 158.363281 C 542.242188 159.40625 541.394531 160.375 540.546875 161.34375 C 530.371094 172.910156 521.214844 185.835938 512.769531 199.011719 Z M 580.65625 133.582031 C 579.515625 136.058594 575.46875 137.082031 573.066406 137.246094 C 568.402344 137.65625 566.109375 134.210938 566.410156 129.808594 C 566.46875 128.652344 566.738281 127.652344 567.074219 126.730469 C 568.605469 125.214844 570.203125 123.777344 572.464844 123.53125 C 575.089844 123.304688 577.554688 124.808594 579.117188 126.84375 C 580.402344 128.648438 581.636719 131.460938 580.65625 133.582031 Z M 580.65625 133.582031 " fill-opacity="1" fill-rule="nonzero"/></g></g></g></svg>