<svg xmlns="http://www.w3.org/2000/svg" xmlns:xlink="http://www.w3.org/1999/xlink" width="320" zoomAndPan="magnify" viewBox="0 0 240 74.999997" height="100" preserveAspectRatio="xMidYMid meet" version="1.0"><defs><g/><clipPath id="b465d8e479"><path d="M 178 5 L 218 5 L 218 28 L 178 28 Z M 178 5 " clip-rule="nonzero"/></clipPath><clipPath id="e11e5b1ff4"><path d="M 178.8125 3.960938 L 217.761719 5.964844 L 216.605469 28.4375 L 177.65625 26.429688 Z M 178.8125 3.960938 " clip-rule="nonzero"/></clipPath><clipPath id="be9a9856eb"><path d="M 178.8125 3.960938 L 217.761719 5.964844 L 216.605469 28.4375 L 177.65625 26.429688 Z M 178.8125 3.960938 " clip-rule="nonzero"/></clipPath></defs><g fill="#f7f7f7" fill-opacity="1"><g transform="translate(29.48543, 55.851374)"><g><path d="M 27.03125 0 L 19.03125 -13.09375 L 10.5625 -13.09375 L 10.5625 0 L 3.359375 0 L 3.359375 -34.46875 L 20.578125 -34.46875 C 24.691406 -34.46875 27.863281 -33.582031 30.09375 -31.8125 C 32.332031 -30.050781 33.453125 -27.515625 33.453125 -24.203125 C 33.453125 -21.785156 32.765625 -19.695312 31.390625 -17.9375 C 30.023438 -16.1875 28.175781 -15.035156 25.84375 -14.484375 L 35.15625 0 Z M 26.1875 -23.90625 C 26.1875 -27.21875 24.0625 -28.875 19.8125 -28.875 L 10.5625 -28.875 L 10.5625 -18.6875 L 20.015625 -18.6875 C 22.035156 -18.6875 23.566406 -19.144531 24.609375 -20.0625 C 25.660156 -20.976562 26.1875 -22.257812 26.1875 -23.90625 Z M 26.1875 -23.90625 "/></g></g></g><g fill="#f7f7f7" fill-opacity="1"><g transform="translate(65.672812, 55.851374)"><g><path d="M 9.609375 0.484375 C 7.054688 0.484375 5.0625 -0.207031 3.625 -1.59375 C 2.1875 -2.988281 1.46875 -4.953125 1.46875 -7.484375 C 1.46875 -10.222656 2.359375 -12.3125 4.140625 -13.75 C 5.929688 -15.1875 8.523438 -15.921875 11.921875 -15.953125 L 17.609375 -16.046875 L 17.609375 -17.390625 C 17.609375 -19.117188 17.304688 -20.40625 16.703125 -21.25 C 16.109375 -22.09375 15.125 -22.515625 13.75 -22.515625 C 12.476562 -22.515625 11.546875 -22.222656 10.953125 -21.640625 C 10.359375 -21.054688 9.984375 -20.097656 9.828125 -18.765625 L 2.671875 -19.109375 C 3.109375 -21.679688 4.285156 -23.632812 6.203125 -24.96875 C 8.117188 -26.300781 10.734375 -26.96875 14.046875 -26.96875 C 17.390625 -26.96875 19.960938 -26.140625 21.765625 -24.484375 C 23.578125 -22.835938 24.484375 -20.5 24.484375 -17.46875 L 24.484375 -7.828125 C 24.484375 -6.347656 24.648438 -5.328125 24.984375 -4.765625 C 25.328125 -4.203125 25.890625 -3.921875 26.671875 -3.921875 C 27.191406 -3.921875 27.695312 -3.96875 28.1875 -4.0625 L 28.1875 -0.34375 C 27.78125 -0.25 27.410156 -0.160156 27.078125 -0.078125 C 26.753906 0.00390625 26.429688 0.0703125 26.109375 0.125 C 25.785156 0.175781 25.4375 0.21875 25.0625 0.25 C 24.695312 0.28125 24.269531 0.296875 23.78125 0.296875 C 22.050781 0.296875 20.773438 -0.125 19.953125 -0.96875 C 19.128906 -1.820312 18.632812 -3.070312 18.46875 -4.71875 L 18.328125 -4.71875 C 16.398438 -1.25 13.492188 0.484375 9.609375 0.484375 Z M 17.609375 -12.265625 L 14.09375 -12.203125 C 12.5 -12.140625 11.363281 -11.960938 10.6875 -11.671875 C 10.019531 -11.390625 9.507812 -10.957031 9.15625 -10.375 C 8.8125 -9.789062 8.640625 -9.007812 8.640625 -8.03125 C 8.640625 -6.769531 8.925781 -5.832031 9.5 -5.21875 C 10.082031 -4.613281 10.851562 -4.3125 11.8125 -4.3125 C 12.894531 -4.3125 13.878906 -4.601562 14.765625 -5.1875 C 15.648438 -5.769531 16.34375 -6.578125 16.84375 -7.609375 C 17.351562 -8.648438 17.609375 -9.75 17.609375 -10.90625 Z M 17.609375 -12.265625 "/></g></g></g><g fill="#f7f7f7" fill-opacity="1"><g transform="translate(93.541256, 55.851374)"><g><path d="M 20.65625 0 L 20.65625 -14.859375 C 20.65625 -19.503906 19.078125 -21.828125 15.921875 -21.828125 C 14.265625 -21.828125 12.925781 -21.113281 11.90625 -19.6875 C 10.882812 -18.257812 10.375 -16.425781 10.375 -14.1875 L 10.375 0 L 3.5 0 L 3.5 -20.546875 C 3.5 -21.972656 3.476562 -23.132812 3.4375 -24.03125 C 3.394531 -24.9375 3.347656 -25.75 3.296875 -26.46875 L 9.859375 -26.46875 C 9.910156 -26.164062 9.972656 -25.335938 10.046875 -23.984375 C 10.128906 -22.640625 10.171875 -21.71875 10.171875 -21.21875 L 10.28125 -21.21875 C 11.207031 -23.238281 12.367188 -24.703125 13.765625 -25.609375 C 15.171875 -26.523438 16.847656 -26.984375 18.796875 -26.984375 C 21.597656 -26.984375 23.75 -26.117188 25.25 -24.390625 C 26.75 -22.660156 27.5 -20.132812 27.5 -16.8125 L 27.5 0 Z M 20.65625 0 "/></g></g></g><g fill="#f7f7f7" fill-opacity="1"><g transform="translate(124.150056, 55.851374)"><g><path d="M 14.578125 10.625 C 11.347656 10.625 8.75 10.003906 6.78125 8.765625 C 4.820312 7.535156 3.613281 5.78125 3.15625 3.5 L 10.03125 2.6875 C 10.28125 3.75 10.804688 4.582031 11.609375 5.1875 C 12.421875 5.789062 13.476562 6.09375 14.78125 6.09375 C 16.6875 6.09375 18.078125 5.503906 18.953125 4.328125 C 19.835938 3.148438 20.28125 1.40625 20.28125 -0.90625 L 20.28125 -2.296875 L 20.328125 -4.921875 L 20.28125 -4.921875 C 18.769531 -1.671875 15.929688 -0.046875 11.765625 -0.046875 C 8.679688 -0.046875 6.289062 -1.203125 4.59375 -3.515625 C 2.90625 -5.835938 2.0625 -9.148438 2.0625 -13.453125 C 2.0625 -17.773438 2.929688 -21.109375 4.671875 -23.453125 C 6.421875 -25.804688 8.957031 -26.984375 12.28125 -26.984375 C 16.132812 -26.984375 18.800781 -25.394531 20.28125 -22.21875 L 20.40625 -22.21875 C 20.40625 -22.789062 20.441406 -23.566406 20.515625 -24.546875 C 20.585938 -25.523438 20.664062 -26.164062 20.75 -26.46875 L 27.25 -26.46875 C 27.15625 -24.707031 27.109375 -22.671875 27.109375 -20.359375 L 27.109375 -0.8125 C 27.109375 2.957031 26.039062 5.804688 23.90625 7.734375 C 21.769531 9.660156 18.660156 10.625 14.578125 10.625 Z M 20.328125 -13.609375 C 20.328125 -16.328125 19.84375 -18.445312 18.875 -19.96875 C 17.90625 -21.5 16.523438 -22.265625 14.734375 -22.265625 C 11.054688 -22.265625 9.21875 -19.328125 9.21875 -13.453125 C 9.21875 -7.691406 11.039062 -4.8125 14.6875 -4.8125 C 16.507812 -4.8125 17.90625 -5.570312 18.875 -7.09375 C 19.84375 -8.625 20.328125 -10.796875 20.328125 -13.609375 Z M 20.328125 -13.609375 "/></g></g></g><g fill="#f7f7f7" fill-opacity="1"><g transform="translate(154.758857, 55.851374)"><g><path d="M 6.921875 10.40625 C 5.273438 10.40625 3.832031 10.296875 2.59375 10.078125 L 2.59375 5.1875 C 3.457031 5.320312 4.25 5.390625 4.96875 5.390625 C 5.945312 5.390625 6.757812 5.234375 7.40625 4.921875 C 8.050781 4.609375 8.628906 4.09375 9.140625 3.375 C 9.648438 2.65625 10.222656 1.441406 10.859375 -0.265625 L 0.390625 -26.46875 L 7.65625 -26.46875 L 11.8125 -14.0625 C 12.46875 -12.289062 13.289062 -9.566406 14.28125 -5.890625 L 14.90625 -8.21875 L 16.484375 -13.96875 L 20.40625 -26.46875 L 27.59375 -26.46875 L 17.125 1.390625 C 15.71875 4.785156 14.257812 7.132812 12.75 8.4375 C 11.25 9.75 9.304688 10.40625 6.921875 10.40625 Z M 6.921875 10.40625 "/></g></g></g><g fill="#f7f7f7" fill-opacity="1"><g transform="translate(182.6273, 55.851374)"><g><path d="M 9.609375 0.484375 C 7.054688 0.484375 5.0625 -0.207031 3.625 -1.59375 C 2.1875 -2.988281 1.46875 -4.953125 1.46875 -7.484375 C 1.46875 -10.222656 2.359375 -12.3125 4.140625 -13.75 C 5.929688 -15.1875 8.523438 -15.921875 11.921875 -15.953125 L 17.609375 -16.046875 L 17.609375 -17.390625 C 17.609375 -19.117188 17.304688 -20.40625 16.703125 -21.25 C 16.109375 -22.09375 15.125 -22.515625 13.75 -22.515625 C 12.476562 -22.515625 11.546875 -22.222656 10.953125 -21.640625 C 10.359375 -21.054688 9.984375 -20.097656 9.828125 -18.765625 L 2.671875 -19.109375 C 3.109375 -21.679688 4.285156 -23.632812 6.203125 -24.96875 C 8.117188 -26.300781 10.734375 -26.96875 14.046875 -26.96875 C 17.390625 -26.96875 19.960938 -26.140625 21.765625 -24.484375 C 23.578125 -22.835938 24.484375 -20.5 24.484375 -17.46875 L 24.484375 -7.828125 C 24.484375 -6.347656 24.648438 -5.328125 24.984375 -4.765625 C 25.328125 -4.203125 25.890625 -3.921875 26.671875 -3.921875 C 27.191406 -3.921875 27.695312 -3.96875 28.1875 -4.0625 L 28.1875 -0.34375 C 27.78125 -0.25 27.410156 -0.160156 27.078125 -0.078125 C 26.753906 0.00390625 26.429688 0.0703125 26.109375 0.125 C 25.785156 0.175781 25.4375 0.21875 25.0625 0.25 C 24.695312 0.28125 24.269531 0.296875 23.78125 0.296875 C 22.050781 0.296875 20.773438 -0.125 19.953125 -0.96875 C 19.128906 -1.820312 18.632812 -3.070312 18.46875 -4.71875 L 18.328125 -4.71875 C 16.398438 -1.25 13.492188 0.484375 9.609375 0.484375 Z M 17.609375 -12.265625 L 14.09375 -12.203125 C 12.5 -12.140625 11.363281 -11.960938 10.6875 -11.671875 C 10.019531 -11.390625 9.507812 -10.957031 9.15625 -10.375 C 8.8125 -9.789062 8.640625 -9.007812 8.640625 -8.03125 C 8.640625 -6.769531 8.925781 -5.832031 9.5 -5.21875 C 10.082031 -4.613281 10.851562 -4.3125 11.8125 -4.3125 C 12.894531 -4.3125 13.878906 -4.601562 14.765625 -5.1875 C 15.648438 -5.769531 16.34375 -6.578125 16.84375 -7.609375 C 17.351562 -8.648438 17.609375 -9.75 17.609375 -10.90625 Z M 17.609375 -12.265625 "/></g></g></g><g clip-path="url(#b465d8e479)"><g clip-path="url(#e11e5b1ff4)"><g clip-path="url(#be9a9856eb)"><path fill="#f7f7f7" d="M 216.75 8.84375 C 216.039062 8.257812 214.644531 8.523438 214.523438 9.546875 C 214.519531 9.585938 214.527344 9.617188 214.539062 9.648438 C 214.464844 10.074219 214.554688 10.527344 214.816406 10.878906 C 213.863281 11.050781 212.976562 11.679688 212.128906 12.085938 C 211.101562 12.574219 210.214844 13.25 209.3125 13.929688 C 208.496094 14.550781 207.660156 15.144531 206.902344 15.839844 C 206.621094 16.097656 206.292969 16.402344 206.011719 16.742188 C 206.007812 16.648438 206 16.554688 205.996094 16.472656 C 205.960938 15.773438 205.925781 15.078125 205.910156 14.378906 C 205.878906 13.140625 205.898438 11.84375 205.714844 10.609375 C 206.066406 10.550781 206.394531 10.382812 206.601562 10.121094 C 206.984375 9.625 206.953125 8.867188 206.636719 8.355469 C 206.300781 7.804688 205.625 7.585938 205.074219 7.855469 C 204.769531 7.929688 204.488281 8.113281 204.285156 8.425781 C 203.914062 8.988281 203.980469 9.800781 204.476562 10.277344 C 204.617188 10.414062 204.789062 10.507812 204.972656 10.570312 C 204.03125 11.53125 203.285156 12.617188 202.585938 13.773438 C 202.160156 14.460938 201.769531 15.167969 201.382812 15.875 C 201.289062 16.039062 201.179688 16.214844 201.070312 16.394531 C 200.703125 14.898438 200.277344 13.433594 199.871094 11.945312 C 199.65625 11.152344 199.480469 10.363281 199.320312 9.5625 C 199.214844 9.027344 199.066406 8.460938 198.707031 8.046875 C 198.707031 8.039062 198.71875 8.023438 198.71875 8.015625 C 198.71875 8.007812 198.71875 8 198.71875 8 C 199.082031 8.042969 199.464844 7.957031 199.765625 7.695312 C 200.566406 7.011719 200.304688 5.683594 199.339844 5.296875 C 198.546875 4.980469 197.453125 5.3125 197.289062 6.222656 C 197.179688 6.875 197.667969 7.925781 198.355469 7.984375 C 197.746094 8.554688 197.335938 9.382812 196.96875 10.105469 C 196.546875 10.917969 196.101562 11.695312 195.660156 12.492188 C 195.238281 13.25 194.917969 14.050781 194.441406 14.777344 C 194.28125 15.019531 194.097656 15.277344 193.949219 15.546875 C 193.785156 15.1875 193.664062 14.796875 193.519531 14.4375 C 193.265625 13.789062 192.949219 13.179688 192.648438 12.542969 C 192.132812 11.445312 191.640625 10.097656 190.765625 9.183594 C 191.039062 9.035156 191.273438 8.804688 191.429688 8.503906 C 191.808594 7.769531 191.625 6.847656 190.878906 6.429688 C 190.546875 6.234375 190.144531 6.191406 189.769531 6.265625 C 189.671875 6.234375 189.570312 6.222656 189.460938 6.242188 C 189.054688 6.296875 188.769531 6.601562 188.566406 6.945312 C 188.105469 7.738281 188.277344 8.726562 189.132812 9.183594 C 189.363281 9.308594 189.625 9.375 189.871094 9.386719 C 189.253906 10.574219 188.726562 11.804688 188.386719 13.097656 C 188.195312 13.84375 187.953125 14.574219 187.746094 15.3125 C 187.660156 15.636719 187.53125 16.011719 187.449219 16.390625 C 186.691406 15.472656 186.085938 14.429688 185.246094 13.578125 C 184.191406 12.507812 182.90625 11.597656 181.410156 11.285156 C 181.394531 11.277344 181.375 11.261719 181.359375 11.25 C 181.5 11.066406 181.613281 10.851562 181.675781 10.632812 C 181.953125 9.675781 181.257812 8.539062 180.195312 8.554688 C 180.054688 8.554688 179.921875 8.578125 179.789062 8.625 C 179.328125 8.722656 178.972656 9.003906 178.792969 9.414062 C 178.550781 9.816406 178.484375 10.285156 178.761719 10.667969 C 178.90625 11.148438 179.21875 11.578125 179.6875 11.777344 C 180.171875 11.984375 180.652344 11.871094 181.023438 11.59375 C 181.269531 11.949219 181.632812 12.273438 181.871094 12.625 C 182.191406 13.113281 182.46875 13.640625 182.703125 14.179688 C 183.203125 15.320312 183.550781 16.53125 183.910156 17.726562 C 184.304688 19.046875 184.734375 20.355469 185.007812 21.707031 C 185.160156 22.472656 185.292969 23.234375 185.40625 24.003906 C 185.511719 24.691406 185.472656 25.582031 185.933594 26.144531 C 186.070312 26.308594 186.28125 26.289062 186.425781 26.183594 C 187.21875 26.316406 188.050781 26.082031 188.828125 25.925781 C 189.660156 25.753906 190.496094 25.582031 191.339844 25.441406 C 193.101562 25.152344 194.875 25.035156 196.652344 25.105469 C 198.386719 25.171875 200.117188 25.414062 201.773438 25.933594 C 202.566406 26.179688 203.300781 26.515625 204.050781 26.875 C 204.570312 27.125 205.1875 27.5 205.792969 27.617188 C 206.027344 27.886719 206.589844 27.792969 206.667969 27.332031 C 206.949219 25.625 207.28125 24.03125 207.898438 22.410156 C 208.527344 20.777344 209.320312 19.203125 210.203125 17.691406 C 211.003906 16.316406 211.886719 14.976562 212.835938 13.703125 C 213.460938 12.871094 214.21875 11.664062 215.222656 11.257812 L 215.230469 11.257812 C 215.835938 11.574219 216.707031 11.359375 217.101562 10.804688 C 217.542969 10.164062 217.316406 9.308594 216.75 8.84375 Z M 204.890625 9.007812 C 204.917969 8.800781 204.988281 8.636719 205.085938 8.511719 C 205.304688 8.378906 205.535156 8.214844 205.792969 8.320312 C 206.007812 8.40625 206.152344 8.628906 206.226562 8.832031 C 206.410156 9.34375 206.144531 9.796875 205.570312 9.8125 C 205.058594 9.824219 204.828125 9.492188 204.890625 9.007812 Z M 199.375 6.230469 C 199.738281 6.867188 198.980469 7.609375 198.347656 7.195312 C 198.183594 7.085938 198.074219 6.945312 198.011719 6.796875 C 197.988281 6.695312 197.96875 6.601562 197.964844 6.511719 C 197.976562 6.304688 198.070312 6.109375 198.242188 5.972656 C 198.601562 5.761719 199.175781 5.882812 199.375 6.230469 Z M 189.074219 7.863281 C 189.070312 7.824219 189.0625 7.796875 189.066406 7.757812 C 189.226562 7.488281 189.34375 7.199219 189.609375 7.003906 C 189.921875 6.785156 190.363281 6.777344 190.6875 6.984375 C 191.277344 7.375 191.015625 8.261719 190.421875 8.484375 C 189.894531 8.6875 189.175781 8.472656 189.074219 7.863281 Z M 180.191406 11.015625 C 179.773438 11.039062 179.507812 10.492188 179.4375 10.160156 C 179.414062 10.042969 179.410156 9.921875 179.417969 9.8125 C 179.460938 9.703125 179.546875 9.589844 179.667969 9.492188 C 179.984375 9.222656 180.433594 9.179688 180.761719 9.476562 C 181.042969 9.738281 181.136719 10.277344 180.882812 10.59375 C 180.742188 10.746094 180.425781 11.003906 180.191406 11.015625 Z M 209.453125 17.078125 C 207.601562 19.933594 206.078125 23.164062 205.730469 26.566406 C 205.601562 26.519531 205.480469 26.476562 205.359375 26.421875 C 204.941406 26.242188 204.542969 26.039062 204.132812 25.839844 C 203.429688 25.5 202.726562 25.195312 201.976562 24.957031 C 200.269531 24.417969 198.484375 24.160156 196.695312 24.089844 C 194.925781 24.019531 193.183594 24.152344 191.4375 24.476562 C 190.570312 24.636719 189.699219 24.832031 188.835938 25.03125 C 188.121094 25.191406 187.332031 25.3125 186.65625 25.636719 C 186.742188 25.015625 186.511719 24.246094 186.425781 23.683594 C 186.292969 22.882812 186.15625 22.078125 185.964844 21.289062 C 185.628906 19.886719 185.125 18.53125 184.660156 17.164062 C 184.261719 15.988281 183.84375 14.8125 183.253906 13.710938 C 183.007812 13.246094 182.722656 12.796875 182.410156 12.375 C 183.238281 12.992188 184.015625 13.675781 184.691406 14.441406 C 185.640625 15.523438 186.246094 16.871094 187.3125 17.859375 C 187.5625 18.09375 187.894531 18.03125 188.097656 17.851562 C 188.160156 17.816406 188.21875 17.765625 188.261719 17.683594 C 188.578125 17.050781 188.589844 16.25 188.765625 15.554688 C 188.949219 14.808594 189.167969 14.070312 189.335938 13.320312 C 189.636719 12.007812 190.054688 10.707031 190.261719 9.378906 C 190.277344 9.378906 190.285156 9.371094 190.300781 9.371094 C 190.585938 9.953125 190.90625 10.511719 191.164062 11.113281 C 191.46875 11.832031 191.738281 12.566406 192.027344 13.292969 C 192.507812 14.484375 192.785156 15.929688 193.597656 16.957031 C 193.605469 16.972656 193.621094 16.980469 193.628906 16.996094 C 193.78125 17.320312 194.402344 17.3125 194.484375 16.917969 C 194.648438 16.140625 195.09375 15.597656 195.496094 14.921875 C 195.917969 14.203125 196.253906 13.417969 196.640625 12.679688 C 197.019531 11.957031 197.34375 11.21875 197.667969 10.46875 C 197.960938 9.804688 198.296875 9.140625 198.554688 8.46875 C 198.691406 8.980469 198.726562 9.5 198.785156 10.03125 C 198.875 10.847656 199.042969 11.648438 199.226562 12.453125 C 199.617188 14.195312 200.109375 15.933594 200.375 17.6875 C 200.398438 17.828125 200.464844 17.921875 200.554688 17.980469 C 200.636719 18.167969 200.90625 18.234375 201.078125 18.152344 C 201.683594 17.871094 201.980469 16.929688 202.292969 16.382812 C 202.671875 15.703125 203.046875 15.027344 203.429688 14.351562 C 204.019531 13.304688 204.617188 12.257812 205.195312 11.210938 C 205.066406 12.257812 205.15625 13.355469 205.140625 14.394531 C 205.128906 15.058594 205.167969 15.71875 205.195312 16.378906 C 205.21875 16.980469 205.070312 17.722656 205.296875 18.285156 C 205.316406 18.332031 205.347656 18.363281 205.386719 18.390625 C 205.457031 18.625 205.777344 18.761719 205.980469 18.566406 C 206.609375 17.957031 207.027344 17.183594 207.6875 16.582031 C 208.402344 15.929688 209.191406 15.367188 209.964844 14.78125 C 210.796875 14.148438 211.582031 13.503906 212.464844 12.9375 C 212.535156 12.886719 212.617188 12.835938 212.6875 12.789062 C 212.597656 12.898438 212.507812 13 212.417969 13.101562 C 211.332031 14.324219 210.351562 15.6875 209.453125 17.078125 Z M 216.699219 10.171875 C 216.578125 10.433594 216.144531 10.542969 215.886719 10.558594 C 215.390625 10.601562 215.144531 10.238281 215.175781 9.773438 C 215.183594 9.652344 215.210938 9.546875 215.246094 9.449219 C 215.410156 9.289062 215.582031 9.136719 215.824219 9.109375 C 216.101562 9.085938 216.367188 9.246094 216.535156 9.460938 C 216.671875 9.652344 216.804688 9.949219 216.699219 10.171875 Z M 216.699219 10.171875 " fill-opacity="1" fill-rule="nonzero"/></g></g></g></svg>